<svg xmlns="http://www.w3.org/2000/svg" viewBox="0 0 800 520" role="img" aria-label="Emergency inverter and battery system">
  <defs>
    <linearGradient id="bg" x1="0" y1="0" x2="1" y2="1"><stop offset="0" stop-color="#eef3ff"/><stop offset="1" stop-color="#fff1dc"/></linearGradient>
    <filter id="shadow" x="-20%" y="-20%" width="140%" height="140%"><feDropShadow dx="0" dy="18" stdDeviation="18" flood-color="#2b1b00" flood-opacity=".22"/></filter>
  </defs>
  <rect width="800" height="520" rx="44" fill="url(#bg)"/>
  <path d="M0 402c93-34 183-31 272-8 94 25 192 24 304-16 78-28 153-25 224 6v136H0z" fill="#d8d7d2"/>
  <g filter="url(#shadow)">
    <rect x="134" y="146" width="218" height="248" rx="30" fill="#202b39"/>
    <rect x="160" y="179" width="166" height="74" rx="14" fill="#dce9ef"/>
    <circle cx="196" cy="306" r="18" fill="#70e078"/>
    <circle cx="246" cy="306" r="18" fill="#ffd15c"/>
    <circle cx="296" cy="306" r="18" fill="#ff6b57"/>
    <path d="M184 356h118" stroke="#8ea1b3" stroke-width="14" stroke-linecap="round"/>
    <rect x="432" y="194" width="182" height="182" rx="24" fill="#fff"/>
    <rect x="456" y="226" width="134" height="118" rx="16" fill="#344454"/>
    <path d="M492 266h62M492 304h62" stroke="#72e077" stroke-width="11" stroke-linecap="round"/>
    <path d="M352 270c34 0 46 0 80 0" stroke="#263442" stroke-width="14" stroke-linecap="round"/>
  </g>
  <path d="M654 91l-64 118h63l-35 92 95-137h-66z" fill="#ffbf2e" stroke="#a66a00" stroke-width="8" stroke-linejoin="round"/>
</svg>